<svg width="150" height="150" viewBox="0 0 150 150" fill="none" xmlns="http://www.w3.org/2000/svg">
<g clip-path="url(#clip0_7816_154404)">
<path d="M145.285 74.4902C147.839 74.6201 150.03 72.6533 150.002 70.0957C149.855 56.6127 146.074 43.387 139.017 31.8302C131.961 20.2734 121.923 10.8677 109.997 4.57688C107.734 3.38358 104.984 4.43406 103.932 6.76568L94.8047 27.0068C93.7532 29.3384 94.8068 32.0601 97.0136 33.3532C103.192 36.9735 108.404 42.0757 112.161 48.2283C115.918 54.3808 118.075 61.3481 118.473 68.4983C118.615 71.052 120.555 73.2327 123.109 73.3626L145.285 74.4902Z" fill="#659419"/>
<path d="M4.73607 74.4902C2.18164 74.6201 -0.00943568 72.6533 0.0185249 70.0957C0.165927 56.6127 3.94711 43.387 11.0036 31.8302C18.0601 20.2734 28.0975 10.8677 40.0239 4.57688C42.2862 3.38358 45.0368 4.43406 46.0882 6.76568L55.2149 27.0044C56.2663 29.336 55.2127 32.0577 53.0059 33.3507C46.8268 36.9713 41.6142 42.0739 37.8572 48.2268C34.1003 54.3798 31.9427 61.3477 31.545 68.4984C31.4029 71.0522 29.4632 73.2328 26.9088 73.3627L4.73607 74.4902Z" fill="#659419"/>
<path fill-rule="evenodd" clip-rule="evenodd" d="M38.2162 136.272C35.9873 135.018 35.3794 132.137 36.7692 129.989L48.832 111.351C50.2217 109.204 53.08 108.614 55.3627 109.768C61.7542 112.999 68.8674 114.614 76.0745 114.437C83.2816 114.26 90.3069 112.297 96.5319 108.756C98.7551 107.492 101.639 107.94 103.133 110.016L116.096 128.04C117.59 130.116 117.124 133.023 114.96 134.386C103.549 141.569 90.3843 145.559 76.8476 145.892C63.3109 146.224 49.9665 142.886 38.2162 136.272Z" fill="#659419"/>
<circle cx="111.967" cy="19.4581" r="2.10755" fill="#ADED44"/>
<circle cx="50.4786" cy="130.213" r="2.10755" fill="#ADED44"/>
<circle cx="11.131" cy="52.8263" r="2.10755" fill="#ADED44"/>
<circle cx="140.479" cy="61.6359" r="2.10755" fill="#ADED44"/>
<circle cx="62.545" cy="123.343" r="2.10755" fill="#ADED44"/>
<circle cx="112.355" cy="27.0882" r="3.20249" fill="#ADED44"/>
<circle cx="102.042" cy="130.213" r="3.20249" fill="#ADED44"/>
<circle cx="25.7559" cy="31.792" r="5.91607" fill="#ADED44"/>
<circle cx="126.467" cy="28.5896" r="2.71358" fill="#ADED44"/>
<circle cx="42.8737" cy="23.8855" r="2.71358" fill="#ADED44"/>
<circle cx="127.599" cy="63.228" r="2.36082" fill="#ADED44"/>
<circle cx="77.3999" cy="134.442" r="2.36082" fill="#ADED44"/>
<circle cx="127.698" cy="46.0834" r="3.94374" fill="#ADED44"/>
<circle cx="87.0687" cy="126.269" r="3.94374" fill="#ADED44"/>
<circle cx="19.8383" cy="60.8676" r="3.94374" fill="#ADED44"/>
</g>
<defs>
<clipPath id="clip0_7816_154404">
<rect width="150" height="150" fill="white"/>
</clipPath>
</defs>
</svg>
