<svg width="150" height="150" viewBox="0 0 150 150" fill="none" xmlns="http://www.w3.org/2000/svg">
<path fill-rule="evenodd" clip-rule="evenodd" d="M57.1214 8.21359C58.9842 7.67583 60.9453 8.53298 61.9207 10.2087L71.3139 26.3456C73.0211 29.2785 77.2621 29.2663 78.9523 26.3235L88.1803 10.2574C89.1517 8.56614 91.1244 7.69867 92.9974 8.24269C119.795 16.0261 139.382 40.7598 139.382 70.0681C139.382 75.4725 138.716 80.7213 137.461 85.737C136.991 87.617 135.267 88.881 133.329 88.8842L115.076 88.9147C111.683 88.9203 109.566 92.5952 111.263 95.5335L120.344 111.249C121.316 112.932 121.083 115.066 119.683 116.416C108.106 127.576 92.3594 134.441 75.0091 134.441C57.6071 134.441 41.8179 127.535 30.232 116.316C28.8376 114.965 28.6066 112.836 29.5777 111.155L38.5983 95.5428C40.2961 92.6044 38.1792 88.9295 34.7857 88.9239L16.6918 88.8937C14.7541 88.8905 13.0301 87.6268 12.5596 85.7471C11.3036 80.7284 10.6367 75.4761 10.6367 70.0681C10.6367 40.7232 30.2722 15.9643 57.1214 8.21359Z" fill="#425621" fill-opacity="0.7"/>
<circle cx="75" cy="75" r="35" fill="#342C28"/>
</svg>
